<svg width="256" height="291" xmlns="http://www.w3.org/2000/svg" preserveAspectRatio="xMidYMid">

 <g>
  <title>background</title>
  <rect fill="none" id="canvas_background" height="293" width="258" y="-1" x="-1"/>
 </g>
 <g>
  <title>Layer 1</title>
  <g stroke="null" id="svg_1">
   <path stroke="null" id="svg_2" fill="#264DE4" d="m127.843868,289.087912l-104.182154,-28.92167l-23.216527,-260.400528l255.109626,0l-23.241143,260.359737l-104.469802,28.962461l0,0z"/>
   <path stroke="null" id="svg_3" fill="#2965F1" d="m212.416703,243.546637l19.861099,-222.489318l-104.277802,0l0,245.892923l84.416703,-23.403605l0,0z"/>
   <path stroke="null" id="svg_4" fill="#EBEBEB" d="m53.668571,117.636132l2.862418,31.936703l71.469011,0l0,-31.936703l-74.331429,0l0,0z"/>
   <path stroke="null" id="svg_5" fill="#EBEBEB" d="m47.917011,52.994725l2.903209,31.937407l77.17978,0l0,-31.937407l-80.082989,0l0,0z"/>
   <path stroke="null" id="svg_6" fill="#EBEBEB" d="m128,200.580132l-0.139956,0.037275l-35.568527,-9.60422l-2.273759,-25.471297l-32.05978,0l4.474374,50.145758l65.420659,18.161231l0.146989,-0.040791l0,-33.227956l0,0z"/>
   <path stroke="null" id="svg_10" fill="#FFFFFF" d="m202.126769,117.636132l5.765627,-64.641407l-80.002814,0l0,31.937407l45.00255,0l-2.906022,32.704l-42.096528,0l0,31.936703l39.326945,0l-3.707076,41.419956l-35.619869,9.614066l0,33.22655l65.472704,-18.145759l0.480351,-5.395692l7.504879,-84.079824l0.779253,-8.576l0,0z"/>
  </g>
 </g>
</svg>