<svg width="256" height="291" xmlns="http://www.w3.org/2000/svg" preserveAspectRatio="xMidYMid">

 <g>
  <title>background</title>
  <rect fill="none" id="canvas_background" height="293" width="258" y="-1" x="-1"/>
 </g>
 <g>
  <title>Layer 1</title>
  <g id="svg_1">
   <path id="svg_2" fill="#E44D26" d="m256.55481,-0.23429l-23.24114,260.35974l-104.4698,28.96246l-104.18216,-28.92167l-23.21652,-260.40053l255.10962,0l0,0z"/>
   <path id="svg_3" fill="#F16529" d="m129,266.95024l84.4167,-23.4036l19.8611,-222.48932l-104.2778,0l0,245.89292l0,0z"/>
   <path id="svg_4" fill="#EBEBEB" d="m83.82022,84.93213l45.17978,0l0,-31.9374l-80.08299,0l0.76448,8.56826l7.8495,88.00984l71.46901,0l0,-31.9367l-42.2611,0l-2.91868,-32.704l0,0z"/>
   <path id="svg_5" fill="#EBEBEB" d="m91.01776,165.54189l-32.05978,0l4.47437,50.14576l65.42066,18.16123l0.14699,-0.04079l0,-33.22796l-0.13996,0.03728l-35.56852,-9.60422l-2.27376,-25.4713l0,0z"/>
   <path id="svg_10" fill="#FFFFFF" d="m128.88958,149.57283l39.32695,0l-3.70708,41.41996l-35.61987,9.61407l0,33.22655l65.47271,-18.14576l0.48035,-5.39569l7.50488,-84.07983l0.77925,-8.576l-74.23719,0l0,31.9367l0,0z"/>
   <path id="svg_11" fill="#FFFFFF" d="m128.88958,84.85407l0,0.07806l77.14321,0l0.64071,-7.17855l1.45511,-16.19059l0.76379,-8.56826l-80.00282,0l0,31.85934l0,0z"/>
  </g>
 </g>
</svg>