<svg width="1776" height="2030" xmlns="http://www.w3.org/2000/svg">

 <g>
  <title>background</title>
  <rect fill="none" id="canvas_background" height="2032" width="1778" y="-1" x="-1"/>
 </g>
 <g>
  <title>Layer 1</title>
  <path id="svg_1" fill="#e6a329" d="m1773.687325,5.696417l-1776,0l166.5,1805.5l721.4,204.6l721.4,-204.6l166.7,-1805.5z"/>
  <path id="svg_2" fill="#f1bf22" d="m885.587325,152.796417l0,1710l584.5,-165.6l142.2,-1544.4l-726.7,0z"/>
  <path id="svg_3" fill="#fff" d="m1350.587325,374.296417l-898.7,0l-62.6,676l1.3,-4.2l763.5,0l-24.9,286l-243.6,70.1l-247.2,-71.2l-14.8,-173.1l-224.4,0l32,345.9l454.4,129l454.6,-129l62.6,-678.9l-810.3,0l10.4,-226.2l562.2,0l8.4,129.6l226.4,0l-49.3,-354z"/>
  <path id="svg_4" fill="#ebebeb" d="m885.787325,374.296417l-433.9,0l-62.6,676l1.3,-4.2l495.2,0l0,-220.5l-261.7,0l10.4,-226.2l251.3,0l0,-225.1zm-261.7,783.6l-224.9,0l32,345.7l454.4,128.8l0,-230l-247.2,-71.4l-14.3,-173.1z"/>
 </g>
</svg>