<?xml version="1.0" encoding="UTF-8" standalone="no"?>
<svg
   xmlns:dc="http://purl.org/dc/elements/1.1/"
   xmlns:cc="http://creativecommons.org/ns#"
   xmlns:rdf="http://www.w3.org/1999/02/22-rdf-syntax-ns#"
   xmlns:svg="http://www.w3.org/2000/svg"
   xmlns="http://www.w3.org/2000/svg"
   xmlns:sodipodi="http://sodipodi.sourceforge.net/DTD/sodipodi-0.dtd"
   xmlns:inkscape="http://www.inkscape.org/namespaces/inkscape"
   version="1.0"
   width="400"
   height="400"
   viewBox="0 0 1000 1000"
   preserveAspectRatio="xMidYMid meet"
   id="svg2"
   inkscape:version="0.91 r13725"
   sodipodi:docname="Adobe Photoshop Express logo.svg">
  <title
     id="title4137">Adobe Photoshop Express logo</title>
  <metadata
     id="metadata2950">
    <rdf:RDF>
      <cc:Work
         rdf:about="">
        <dc:format>image/svg+xml</dc:format>
        <dc:type
           rdf:resource="http://purl.org/dc/dcmitype/StillImage" />
        <dc:title>Adobe Photoshop Express logo</dc:title>
        <cc:license
           rdf:resource="http://scripts.sil.org/OFL" />
      </cc:Work>
      <cc:License
         rdf:about="http://scripts.sil.org/OFL">
        <cc:permits
           rdf:resource="http://scripts.sil.org/pub/OFL/Reproduction" />
        <cc:permits
           rdf:resource="http://scripts.sil.org/pub/OFL/Distribution" />
        <cc:permits
           rdf:resource="http://scripts.sil.org/pub/OFL/Embedding" />
        <cc:permits
           rdf:resource="http://scripts.sil.org/pub/OFL/DerivativeWorks" />
        <cc:requires
           rdf:resource="http://scripts.sil.org/pub/OFL/Notice" />
        <cc:requires
           rdf:resource="http://scripts.sil.org/pub/OFL/Attribution" />
        <cc:requires
           rdf:resource="http://scripts.sil.org/pub/OFL/ShareAlike" />
        <cc:requires
           rdf:resource="http://scripts.sil.org/pub/OFL/DerivativeRenaming" />
        <cc:requires
           rdf:resource="http://scripts.sil.org/pub/OFL/BundlingWhenSelling" />
      </cc:License>
    </rdf:RDF>
  </metadata>
  <defs
     id="defs2948" />
  <sodipodi:namedview
     pagecolor="#ffffff"
     bordercolor="#666666"
     borderopacity="1"
     objecttolerance="10"
     gridtolerance="10"
     guidetolerance="10"
     inkscape:pageopacity="0"
     inkscape:pageshadow="2"
     inkscape:window-width="1366"
     inkscape:window-height="705"
     id="namedview2946"
     showgrid="false"
     inkscape:zoom="1"
     inkscape:cx="82.571764"
     inkscape:cy="54.922805"
     inkscape:window-x="-8"
     inkscape:window-y="-8"
     inkscape:window-maximized="1"
     inkscape:current-layer="svg2"
     inkscape:showpageshadow="false" />
  <rect
     style="opacity:1;fill:#001c24;fill-opacity:1;stroke:none;stroke-width:3.4000001;stroke-miterlimit:4;stroke-dasharray:none;stroke-opacity:1"
     id="rect4474-8-5-7-4"
     width="917.56799"
     height="912.74689"
     x="41.152325"
     y="38.479412"
     ry="169.76021" />
  <path
     class="st1"
     d="m 374.61915,363.56944 c 0,-1.559 3.127,-2.673 4.913,-2.673 14.296,-0.67 35.515,-1.114 57.628,-1.114 61.871,0 85.994,33.866 85.994,77.314 0,56.593 -41.099,80.878 -91.578,80.878 -8.488,0 -11.392,-0.45 -17.423,-0.45 l 0,85.558 c 0,1.782 -0.67,2.673 -2.68,2.673 l -34.174,0 c -1.787,0 -2.68,-0.67 -2.68,-2.673 l 0,-239.518 z m 39.758,118.311 c 5.137,0.44 9.158,0.44 18.092,0.44 26.133,0 50.703,-9.135 50.703,-44.561 0,-28.297 -17.645,-42.556 -47.352,-42.556 -8.935,0 -17.423,0.44 -21.443,0.67 l 0,86.004 z m 192.091,-26.514 c -17.646,0 -23.676,8.912 -23.676,16.265 0,8.021 4.02,13.591 27.696,25.845 35.068,16.934 46.013,33.199 46.013,57.039 0,35.649 -27.25,54.81 -64.105,54.81 -19.432,0 -36.184,-4.01 -45.789,-9.58 -1.564,-0.67 -1.787,-1.783 -1.787,-3.565 l 0,-32.753 c 0,-2.228 1.117,-2.896 2.68,-1.782 14.072,9.135 30.154,13.145 44.896,13.145 17.646,0 25.017,-7.352 25.017,-17.379 0,-8.021 -5.138,-15.15 -27.697,-26.736 -31.718,-15.151 -44.896,-30.525 -44.896,-56.148 0,-28.742 22.56,-52.582 61.648,-52.582 19.209,0 32.611,2.896 39.982,6.238 1.787,1.114 2.233,2.897 2.233,4.456 l 0,30.525 c 0,1.782 -1.117,2.897 -3.35,2.228 -9.828,-6.238 -24.347,-10.026 -38.865,-10.026 z"
     id="path7-4"
     inkscape:connector-curvature="0"
     style="fill:#03c7fc;fill-opacity:1"
     sodipodi:nodetypes="ccssscsssscccsssccccscsscsscsscsscssccc" />
  <path
     style="fill:#c8effc;fill-opacity:1;stroke:none"
     d="m 553.52615,779.79544 c -7.01,5.782 -16.846,11.06 -26.208,13.956 -26.964,8.503 -57.689,1.643 -81.213,-18.142 -3.12,-2.621 -35.958,-35.952 -116.191,-117.942 -122.653,-125.298 -113.031,-115.141 -119.218,-125.85 -9.117,-15.791 -13.483,-34.566 -12.081,-51.864 1.12,-14.232 5.678,-27.336 13.866,-40.093 2.242,-3.514 8.774,-10.203 113.172,-116.152 78.024,-79.165 112.072,-113.501 115.145,-116.028 13.052,-10.805 28.566,-17.004 46.298,-18.425 19.629,-1.586 41.621,4.898 58.255,17.101 3.542,2.632 14.917,14.088 117.976,119.133 101.041,102.99 114.332,116.677 116.73,120.029 8.762,12.565 14.436,27.014 16.245,41.646 2.971,23.991 -3.368,46.948 -17.944,65.003 -4.176,5.108 -219.825,223.508 -224.832,227.628 z m 205.709,-239.432 c 0.2,-0.42 0.82,-1.051 1.41,-1.428 0.62,-0.34 1.174,-0.97 1.271,-1.36 0.1,-0.39 0.4,-1.062 0.74,-1.482 2.155,-2.695 4.917,-8.126 5.829,-11.318 0.16,-0.53 0.43,-1.097 0.61,-1.271 0.17,-0.17 0.7,-1.876 1.181,-3.757 0.49,-1.882 1.044,-3.618 1.25,-3.827 0.24,-0.24 0.55,-1.88 0.69,-3.628 0.17,-1.782 0.48,-3.704 0.68,-4.271 0.23,-0.6 0.4,-2.384 0.37,-3.886 0,-1.537 0.1,-4.466 0.2,-6.5 0.13,-2.105 0.1,-3.93 -0.2,-4.187 -0.22,-0.22 -0.41,-1.048 -0.5,-1.836 -0.2,-4.045 -0.33,-5.299 -0.65,-5.63 -0.18,-0.18 -0.23,-0.65 -0.1,-1.038 0.17,-0.39 0,-1.716 -0.46,-2.979 -0.45,-1.227 -0.98,-3.028 -1.251,-4 -0.46,-1.871 -2.953,-9.23 -4.184,-12.301 -0.41,-1.047 -1.474,-2.97 -2.312,-4.243 -0.87,-1.31 -1.753,-2.835 -2.012,-3.378 -0.48,-1.121 -1.757,-3.049 -3.967,-5.861 -0.8,-1.022 -1.779,-2.442 -2.219,-3.24 -0.77,-1.557 -214.952,-219.655 -217.238,-221.217 -0.68,-0.48 -2.469,-1.818 -4.006,-2.895 -1.466,-1.076 -3,-2.011 -3.354,-2.091 -0.35,0 -1.741,-0.8 -3.028,-1.69 -2.144,-1.486 -10.663,-4.859 -14.483,-5.747 -2.794,-0.68 -3.821,-0.96 -4.85,-1.38 -1.989,-0.84 -20.543,-1.513 -21.3,-0.75 -0.1,0.1 -0.91,0.19 -1.756,0.1 -0.85,0 -2.248,0.15 -3.052,0.38 -0.84,0.26 -2.202,0.62 -3.044,0.74 -2.943,0.49 -13,3.8 -13.687,4.497 -0.38,0.38 -1.387,0.89 -2.225,1.155 -0.8,0.23 -1.882,0.81 -2.329,1.261 -0.41,0.42 -1.074,0.72 -1.393,0.61 -0.32,0 -0.7,0.12 -0.83,0.41 -0.17,0.32 -0.86,0.87 -1.624,1.279 -1.392,0.68 -2.604,1.539 -5.091,3.546 -1.659,1.314 -215.485,217.868 -217.026,219.721 -0.58,0.73 -1.5,2.105 -2.008,2.985 -0.51,0.88 -1.089,1.615 -1.3,1.61 -0.18,0 -0.38,0.38 -0.44,0.81 0,0.46 -0.53,1.487 -1.109,2.294 -0.58,0.81 -1.42,2.535 -1.884,3.81 -0.43,1.311 -1,2.547 -1.204,2.756 -0.38,0.38 -0.68,1.197 -1.39,3.823 -0.23,0.89 -0.72,2.483 -1.011,3.512 -0.85,2.765 -1.875,8.85 -1.644,9.714 0.11,0.4 0,1 -0.32,1.278 -0.28,0.28 -0.37,0.81 -0.18,1.211 0.19,0.4 0.17,2.899 0,5.575 -0.19,2.676 -0.2,5.249 0,5.684 0.37,0.8 0.58,2.124 0.69,5.594 0,0.93 0.25,1.866 0.47,2.086 0.22,0.22 0.3,0.72 0.13,1.111 -0.17,0.39 0,1.501 0.27,2.438 0.34,0.97 0.87,2.776 1.217,4.036 0.34,1.26 1.324,4.074 2.112,6.276 0.79,2.201 1.726,4.764 2.027,5.63 0.83,2.381 2.632,5.896 3.02,5.942 0.17,0 0.58,0.59 0.91,1.347 0.3,0.72 1.141,2.211 1.869,3.302 0.76,1.057 1.639,2.439 2.04,3.057 0.4,0.62 1.273,1.857 1.928,2.804 1.527,2.185 215.277,220.057 217.495,221.689 7.371,5.486 12.222,8.475 16.127,10.009 5.572,2.186 6.317,2.456 8.015,2.859 0.99,0.24 2.761,0.79 4.038,1.251 1.241,0.43 2.973,0.79 3.888,0.82 0.88,0 1.798,0.15 1.978,0.34 0.22,0.22 0.89,0.27 1.516,0.15 0.63,-0.13 1.3,-0.1 1.48,0.11 0.18,0.18 3.315,0.37 6.974,0.4 8.585,0.1 9.183,0.1 9.424,-0.18 0.1,-0.1 1.959,-0.45 4.204,-0.75 4.383,-0.63 5.643,-0.89 7.528,-1.551 3.245,-1.164 4.499,-1.703 7.979,-3.397 2.053,-0.98 4.072,-1.929 4.455,-2.098 0.38,-0.17 0.94,-0.44 1.148,-0.58 0.24,-0.17 0.52,-0.31 0.66,-0.37 0.87,-0.3 4.643,-3.165 5.948,-4.56 0.69,-0.7 1.449,-1.248 1.662,-1.171 0.53,0.12 214.73,-217.03 215.196,-218.162 z"
     id="path813-1"
     inkscape:connector-curvature="0" />
  <g
     id="layerbg7-8"
     transform="matrix(0.1014603,0,0,0.102744,-821.49585,998.24043)"
     style="fill:#03c7fc;fill-opacity:1;stroke:none">
    <path
       d="m 9768.0343,-178.31646 c -183.1395,-18.04632 -399.9371,-82.211 -576.1471,-172.44259 -509.8208,-257.66132 -856.3009,-777.99685 -915.6976,-1375.53045 -7.9195,-79.2033 -9.8994,-991.5449 -6.9296,-3228.2857 3.9598,-3418.7746 -0.9899,-3146.0747 61.3766,-3378.6717 92.0646,-342.8801 295.003,-660.6958 560.3078,-878.2541 217.7876,-179.4606 469.2332,-295.7591 768.1962,-356.9161 82.1653,-17.0438 271.2444,-18.0463 3279.6814,-21.054 2248.162,-2.0052 3226.226,0 3306.411,8.0205 341.531,33.085 653.363,163.4195 929.557,390.001 305.892,250.6433 531.6,644.6546 598.916,1042.6762 13.859,85.2187 15.839,400.0267 15.839,3269.3912 0,2813.2204 -1.98,3185.1751 -14.849,3264.3783 -51.478,293.754 -174.23,570.4642 -355.39,796.04316 -296.982,369.94951 -713.749,596.53106 -1180.012,641.64685 -132.653,12.03088 -6340.5873,12.03088 -6471.2597,-1.00257 z M 16130.4,-604.41007 c 8.909,-3.00772 26.729,-3.00772 40.588,0 13.858,4.01029 30.688,3.00772 37.617,-1.00258 6.931,-4.01029 20.789,-9.02315 31.679,-10.02573 69.296,-7.01801 186.109,-43.11065 244.516,-74.19041 9.9,-5.01287 21.778,-9.02316 26.728,-9.02316 4.95,0 36.628,-16.04118 70.286,-35.09007 33.658,-19.04889 66.327,-35.09006 72.266,-35.09006 6.93,0 34.648,-18.04632 61.377,-40.10293 27.718,-22.05661 59.396,-44.11322 70.285,-49.12608 11.88,-5.01287 39.598,-27.06948 60.387,-48.12352 21.779,-21.05403 64.347,-60.15439 95.035,-86.22129 31.678,-27.0695 56.426,-53.1364 56.426,-60.1544 0,-6.0154 8.91,-20.0515 18.81,-32.0823 54.446,-58.1493 70.285,-77.1982 70.285,-86.2213 0,-5.0129 5.94,-12.0309 13.86,-15.0386 7.919,-3.0078 23.759,-24.0618 35.637,-47.121 10.89,-23.0592 28.708,-55.1415 38.608,-72.1852 19.799,-32.0824 88.106,-167.4298 113.844,-226.5816 8.91,-20.0515 20.788,-61.157 26.728,-90.2316 5.94,-30.0772 14.85,-63.1621 18.81,-74.1904 8.909,-22.0566 17.818,-66.1698 25.738,-135.3474 2.97,-25.0643 8.91,-58.1492 13.859,-75.193 10.889,-32.0823 7.92,-5992.38 -2.97,-6045.5164 -2.97,-16.0412 -9.899,-59.1518 -16.829,-95.2445 -5.94,-35.09 -14.849,-69.1775 -18.809,-75.1929 -4.949,-5.0129 -13.859,-35.0901 -19.799,-65.1673 -9.9,-50.1287 -85.135,-214.5507 -127.702,-279.7179 -30.688,-48.1235 -41.578,-66.1699 -50.487,-86.2213 -16.829,-39.1004 -275.205,-305.7848 -296.984,-305.7848 -2.969,0 -15.839,-10.0258 -26.728,-23.0592 -11.879,-12.0309 -34.648,-29.0747 -49.497,-37.0952 -15.839,-8.0206 -40.588,-22.0567 -54.447,-32.0824 -49.497,-34.0875 -241.547,-128.3294 -261.345,-128.3294 -10.89,0 -32.668,-7.018 -48.507,-15.0386 -14.849,-8.0205 -38.608,-15.0386 -51.477,-15.0386 -11.88,0 -25.739,-5.0128 -28.708,-11.0283 -3.96,-5.0128 -11.88,-8.0205 -17.82,-6.0154 -6.93,2.0052 -24.748,0 -41.578,-5.0129 -29.697,-10.0257 -59.396,-15.0386 -123.742,-22.0566 -42.568,-5.0128 -6198.0355,-5.0128 -6246.5427,-1.0025 -18.809,2.0051 -51.477,8.0205 -71.2758,13.0334 -19.7989,5.0129 -38.6079,7.018 -41.5777,4.0103 -2.9698,-2.0051 -10.8894,0 -17.819,5.0129 -6.9296,6.0154 -28.7084,13.0334 -48.5072,16.0411 -19.7989,3.0078 -56.4268,15.0386 -81.1753,26.0669 -24.7487,12.0309 -50.4872,21.0541 -56.4268,21.0541 -10.8894,0 -26.7285,7.018 -74.2457,33.0849 -15.8392,9.0232 -45.5375,24.0617 -64.3464,34.0875 -51.4771,26.0669 -152.4512,95.2444 -161.3607,110.283 -3.9599,7.018 -14.8492,13.0335 -22.7688,13.0335 -7.9195,0 -16.829,6.0154 -19.7988,14.036 -2.9699,8.0206 -38.6079,42.1081 -79.1955,76.1956 -40.5877,34.0875 -77.2156,69.1775 -80.1854,78.2007 -5.9396,16.0412 -21.7788,37.0952 -69.296,86.2213 -12.8694,13.0334 -22.7687,29.0746 -22.7687,35.09 0,6.0155 -5.9397,14.0361 -13.8592,17.0438 -7.9196,3.0077 -21.7788,20.0515 -30.6883,37.0952 -8.9095,18.0463 -26.7285,50.1287 -39.5977,72.1853 -12.8693,22.0566 -38.6079,74.1904 -58.4067,115.2959 -19.7989,41.1055 -42.5676,89.229 -50.4872,105.2702 -21.7786,44.1132 -45.5373,117.301 -40.5876,123.3165 2.9699,2.0051 0,16.0411 -5.9397,31.0797 -5.9396,14.0361 -14.8491,46.1184 -19.7988,71.1827 -3.9598,25.0644 -10.8894,56.1441 -13.8592,70.1802 -2.9699,14.036 -7.9196,43.1106 -11.8793,65.1672 -8.9095,51.1313 -8.9095,6002.4058 0,6055.5422 28.7083,177.4554 56.4268,285.7334 91.0748,360.9263 49.4971,107.2754 56.4267,121.3114 75.2357,150.386 10.8893,17.0438 28.7083,49.1261 40.5876,73.1879 11.8793,23.0592 31.6782,52.1338 44.5475,65.1672 12.8693,12.0309 23.7586,27.0695 23.7586,32.0824 0,6.0154 8.9095,16.0411 19.7988,23.0592 10.8895,7.018 19.799,17.0437 19.799,22.0566 0,5.0128 42.5675,51.1312 95.0345,102.26243 122.7529,120.30879 131.6625,128.32937 138.5921,128.32937 2.9698,0 34.648,21.05404 71.2759,48.12352 72.2659,52.1338 94.0447,66.16983 130.6725,83.21357 63.3564,29.07462 89.095,39.10036 163.3407,64.16469 43.5575,15.03859 86.1251,30.07719 94.0446,33.08491 7.9195,3.00772 19.7989,7.01801 24.7486,8.02059 5.9396,1.00257 11.8793,3.00772 14.8492,4.01029 16.8289,8.02059 111.8636,21.05404 150.4712,20.05146 19.7989,0 38.6079,3.00772 40.5878,7.01802 5.9396,9.02316 6175.2671,6.01544 6198.0351,-3.00772 z"
       id="path813-0"
       inkscape:connector-curvature="0"
       style="fill:#03c7fc;fill-opacity:1" />
  </g>
</svg>
