<svg display="none" xmlns="http://www.w3.org/2000/svg">
  <symbol id="instagram" viewBox="0 0 169.063 169.063">
    <g>
      <path d="M122.406,0H46.654C20.929,0,0,20.93,0,46.655v75.752c0,25.726,20.929,46.655,46.654,46.655h75.752
        c25.727,0,46.656-20.93,46.656-46.655V46.655C169.063,20.93,148.133,0,122.406,0z M154.063,122.407
        c0,17.455-14.201,31.655-31.656,31.655H46.654C29.2,154.063,15,139.862,15,122.407V46.655C15,29.201,29.2,15,46.654,15h75.752
        c17.455,0,31.656,14.201,31.656,31.655V122.407z"/>
      <path d="M84.531,40.97c-24.021,0-43.563,19.542-43.563,43.563c0,24.02,19.542,43.561,43.563,43.561s43.563-19.541,43.563-43.561
        C128.094,60.512,108.552,40.97,84.531,40.97z M84.531,113.093c-15.749,0-28.563-12.812-28.563-28.561
        c0-15.75,12.813-28.563,28.563-28.563s28.563,12.813,28.563,28.563C113.094,100.281,100.28,113.093,84.531,113.093z"/>
      <path d="M129.921,28.251c-2.89,0-5.729,1.17-7.77,3.22c-2.051,2.04-3.23,4.88-3.23,7.78c0,2.891,1.18,5.73,3.23,7.78
        c2.04,2.04,4.88,3.22,7.77,3.22c2.9,0,5.73-1.18,7.78-3.22c2.05-2.05,3.22-4.89,3.22-7.78c0-2.9-1.17-5.74-3.22-7.78
        C135.661,29.421,132.821,28.251,129.921,28.251z"/>
    </g>
  </symbol>

  <symbol id="telegram" viewBox="0 -39 512.00011 512">
    <g>
      <path d="m504.09375 11.859375c-6.253906-7.648437-15.621094-11.859375-26.378906-11.859375-5.847656 0-12.042969 1.230469-18.410156
        3.664062l-433.398438 165.441407c-23 8.777343-26.097656 21.949219-25.8984375 29.019531s4.0390625 20.046875 27.4999995
        27.511719c.140626.042969.28125.085937.421876.125l89.898437 25.726562 48.617187 139.023438c6.628907 18.953125 21.507813
        30.726562 38.835938 30.726562 10.925781 0 21.671875-4.578125 31.078125-13.234375l55.605469-51.199218 80.652344
        64.941406c.007812.007812.019531.011718.027343.019531l.765625.617187c.070313.054688.144532.113282.214844.167969
        8.964844 6.953125 18.75 10.625 28.308594 10.628907h.003906c18.675781 0 33.546875-13.824219
        37.878906-35.214844l71.011719-350.640625c2.851563-14.074219.460937-26.667969-6.734375-35.464844zm-356.191406
        234.742187 173.441406-88.605468-107.996094 114.753906c-1.769531 1.878906-3.023437 4.179688-3.640625 6.683594l-20.824219
        84.351562zm68.132812 139.332032c-.71875.660156-1.441406 1.25-2.164062 1.792968l19.320312-78.25 35.144532
        28.300782zm265.390625-344.566406-71.011719 350.644531c-.683593 3.355469-2.867187 11.164062-8.480468 11.164062-2.773438
        0-6.257813-1.511719-9.824219-4.257812l-91.390625-73.585938c-.011719-.011719-.027344-.023437-.042969-.03125l-54.378906-43.789062
        156.175781-165.949219c5-5.3125 5.453125-13.449219 1.074219-19.285156-4.382813-5.835938-12.324219-7.671875-18.820313-4.351563l-256.867187
        131.226563-91.121094-26.070313 433.265625-165.390625c3.660156-1.398437 6.214844-1.691406 7.710938-1.691406.917968 0 2.550781.109375
        3.15625.855469.796875.972656 1.8125 4.289062.554687 10.511719zm0 0"/>
    </g>
  </symbol>

  <symbol id="mail" viewBox="0 0 483.3 483.3">
    <g>
      <path d="M424.3,57.75H59.1c-32.6,0-59.1,26.5-59.1,59.1v249.6c0,32.6,26.5,59.1,59.1,59.1h365.1c32.6,0,59.1-26.5,59.1-59.1
        v-249.5C483.4,84.35,456.9,57.75,424.3,57.75z M456.4,366.45c0,17.7-14.4,32.1-32.1,32.1H59.1c-17.7,0-32.1-14.4-32.1-32.1v-249.5
        c0-17.7,14.4-32.1,32.1-32.1h365.1c17.7,0,32.1,14.4,32.1,32.1v249.5H456.4z"/>
      <path d="M304.8,238.55l118.2-106c5.5-5,6-13.5,1-19.1c-5-5.5-13.5-6-19.1-1l-163,146.3l-31.8-28.4c-0.1-0.1-0.2-0.2-0.2-0.3
        c-0.7-0.7-1.4-1.3-2.2-1.9L78.3,112.35c-5.6-5-14.1-4.5-19.1,1.1c-5,5.6-4.5,14.1,1.1,19.1l119.6,106.9L60.8,350.95
        c-5.4,5.1-5.7,13.6-0.6,19.1c2.7,2.8,6.3,4.3,9.9,4.3c3.3,0,6.6-1.2,9.2-3.6l120.9-113.1l32.8,29.3c2.6,2.3,5.8,3.4,9,3.4
        c3.2,0,6.5-1.2,9-3.5l33.7-30.2l120.2,114.2c2.6,2.5,6,3.7,9.3,3.7c3.6,0,7.1-1.4,9.8-4.2c5.1-5.4,4.9-14-0.5-19.1L304.8,238.55z"/>
	  </g>  
  </symbol>  

  <symbol id="github" viewBox="0 0 438.549 438.549">
    <g>
      <path d="M409.132,114.573c-19.608-33.596-46.205-60.194-79.798-79.8C295.736,15.166,259.057,5.365,219.271,5.365
        c-39.781,0-76.472,9.804-110.063,29.408c-33.596,19.605-60.192,46.204-79.8,79.8C9.803,148.168,0,184.854,0,224.63
        c0,47.78,13.94,90.745,41.827,128.906c27.884,38.164,63.906,64.572,108.063,79.227c5.14,0.954,8.945,0.283,11.419-1.996
        c2.475-2.282,3.711-5.14,3.711-8.562c0-0.571-0.049-5.708-0.144-15.417c-0.098-9.709-0.144-18.179-0.144-25.406l-6.567,1.136
        c-4.187,0.767-9.469,1.092-15.846,1c-6.374-0.089-12.991-0.757-19.842-1.999c-6.854-1.231-13.229-4.086-19.13-8.559
        c-5.898-4.473-10.085-10.328-12.56-17.556l-2.855-6.57c-1.903-4.374-4.899-9.233-8.992-14.559
        c-4.093-5.331-8.232-8.945-12.419-10.848l-1.999-1.431c-1.332-0.951-2.568-2.098-3.711-3.429c-1.142-1.331-1.997-2.663-2.568-3.997
        c-0.572-1.335-0.098-2.43,1.427-3.289c1.525-0.859,4.281-1.276,8.28-1.276l5.708,0.853c3.807,0.763,8.516,3.042,14.133,6.851
        c5.614,3.806,10.229,8.754,13.846,14.842c4.38,7.806,9.657,13.754,15.846,17.847c6.184,4.093,12.419,6.136,18.699,6.136
        c6.28,0,11.704-0.476,16.274-1.423c4.565-0.952,8.848-2.383,12.847-4.285c1.713-12.758,6.377-22.559,13.988-29.41
        c-10.848-1.14-20.601-2.857-29.264-5.14c-8.658-2.286-17.605-5.996-26.835-11.14c-9.235-5.137-16.896-11.516-22.985-19.126
        c-6.09-7.614-11.088-17.61-14.987-29.979c-3.901-12.374-5.852-26.648-5.852-42.826c0-23.035,7.52-42.637,22.557-58.817
        c-7.044-17.318-6.379-36.732,1.997-58.24c5.52-1.715,13.706-0.428,24.554,3.853c10.85,4.283,18.794,7.952,23.84,10.994
        c5.046,3.041,9.089,5.618,12.135,7.708c17.705-4.947,35.976-7.421,54.818-7.421s37.117,2.474,54.823,7.421l10.849-6.849
        c7.419-4.57,16.18-8.758,26.262-12.565c10.088-3.805,17.802-4.853,23.134-3.138c8.562,21.509,9.325,40.922,2.279,58.24
        c15.036,16.18,22.559,35.787,22.559,58.817c0,16.178-1.958,30.497-5.853,42.966c-3.9,12.471-8.941,22.457-15.125,29.979
        c-6.191,7.521-13.901,13.85-23.131,18.986c-9.232,5.14-18.182,8.85-26.84,11.136c-8.662,2.286-18.415,4.004-29.263,5.146
        c9.894,8.562,14.842,22.077,14.842,40.539v60.237c0,3.422,1.19,6.279,3.572,8.562c2.379,2.279,6.136,2.95,11.276,1.995
        c44.163-14.653,80.185-41.062,108.068-79.226c27.88-38.161,41.825-81.126,41.825-128.906
        C438.536,184.851,428.728,148.168,409.132,114.573z"/>
    </g>
  </symbol>

  <symbol id="facebook" viewBox="0 0 96.124 96.123">
    <g>
      <path d="M72.089,0.02L59.624,0C45.62,0,36.57,9.285,36.57,23.656v10.907H24.037c-1.083,0-1.96,0.878-1.96,1.961v15.803
        c0,1.083,0.878,1.96,1.96,1.96h12.533v39.876c0,1.083,0.877,1.96,1.96,1.96h16.352c1.083,0,1.96-0.878,1.96-1.96V54.287h14.654
        c1.083,0,1.96-0.877,1.96-1.96l0.006-15.803c0-0.52-0.207-1.018-0.574-1.386c-0.367-0.368-0.867-0.575-1.387-0.575H56.842v-9.246
        c0-4.444,1.059-6.7,6.848-6.7l8.397-0.003c1.082,0,1.959-0.878,1.959-1.96V1.98C74.046,0.899,73.17,0.022,72.089,0.02z"/>
    </g>
  </symbol>
  
  <symbol id="twitter" viewBox="0 0 512 512">
    <g>
      <path d="M512,97.248c-19.04,8.352-39.328,13.888-60.48,16.576c21.76-12.992,38.368-33.408,46.176-58.016
        c-20.288,12.096-42.688,20.64-66.56,25.408C411.872,60.704,384.416,48,354.464,48c-58.112,0-104.896,47.168-104.896,104.992
        c0,8.32,0.704,16.32,2.432,23.936c-87.264-4.256-164.48-46.08-216.352-109.792c-9.056,15.712-14.368,33.696-14.368,53.056
        c0,36.352,18.72,68.576,46.624,87.232c-16.864-0.32-33.408-5.216-47.424-12.928c0,0.32,0,0.736,0,1.152
        c0,51.008,36.384,93.376,84.096,103.136c-8.544,2.336-17.856,3.456-27.52,3.456c-6.72,0-13.504-0.384-19.872-1.792
        c13.6,41.568,52.192,72.128,98.08,73.12c-35.712,27.936-81.056,44.768-130.144,44.768c-8.608,0-16.864-0.384-25.12-1.44
        C46.496,446.88,101.6,464,161.024,464c193.152,0,298.752-160,298.752-298.688c0-4.64-0.16-9.12-0.384-13.568
        C480.224,136.96,497.728,118.496,512,97.248z"/>
	  </g>
  </symbol>
  
  <symbol id="html" viewBox="0 0 256 361">
    <g>
        <path d="M255.554813,70.7657143 L232.31367,331.125451 L127.843868,360.087912 L23.6617143,331.166242 L0.445186813,70.7657143 L255.554813,70.7657143 L255.554813,70.7657143 Z" fill="#E44D26"></path>
        <path d="M128,337.950242 L212.416703,314.546637 L232.277802,92.0573187 L128,92.0573187 L128,337.950242 L128,337.950242 Z" fill="#F16529"></path>
        <path d="M82.8202198,155.932132 L128,155.932132 L128,123.994725 L47.917011,123.994725 L48.6814945,132.562989 L56.530989,220.572835 L128,220.572835 L128,188.636132 L85.7389011,188.636132 L82.8202198,155.932132 L82.8202198,155.932132 Z" fill="#EBEBEB"></path>
        <path d="M90.0177582,236.54189 L57.957978,236.54189 L62.4323516,286.687648 L127.853011,304.848879 L128,304.808088 L128,271.580132 L127.860044,271.617407 L92.2915165,262.013187 L90.0177582,236.54189 L90.0177582,236.54189 Z" fill="#EBEBEB"></path>
        <path d="M127.889582,220.572835 L167.216527,220.572835 L163.509451,261.992791 L127.889582,271.606857 L127.889582,304.833407 L193.362286,286.687648 L193.842637,281.291956 L201.347516,197.212132 L202.126769,188.636132 L127.889582,188.636132 L127.889582,220.572835 L127.889582,220.572835 Z" fill="#FFFFFF"></path>
        <path d="M127.889582,155.854066 L127.889582,155.932132 L205.032791,155.932132 L205.673495,148.753582 L207.128615,132.562989 L207.892396,123.994725 L127.889582,123.994725 L127.889582,155.854066 L127.889582,155.854066 Z" fill="#FFFFFF"></path>
    </g>
  </symbol>

  <symbol id="css" viewBox="0 0 256 361">
    <g>
        <path d="M127.843868,360.087912 L23.6617143,331.166242 L0.445186813,70.7657143 L255.554813,70.7657143 L232.31367,331.125451 L127.843868,360.087912 L127.843868,360.087912 Z" fill="#264DE4"></path>
        <path d="M212.416703,314.546637 L232.277802,92.0573187 L128,92.0573187 L128,337.950242 L212.416703,314.546637 L212.416703,314.546637 Z" fill="#2965F1"></path>
        <path d="M53.6685714,188.636132 L56.530989,220.572835 L128,220.572835 L128,188.636132 L53.6685714,188.636132 L53.6685714,188.636132 Z" fill="#EBEBEB"></path>
        <path d="M47.917011,123.994725 L50.8202198,155.932132 L128,155.932132 L128,123.994725 L47.917011,123.994725 L47.917011,123.994725 Z" fill="#EBEBEB"></path>
        <path d="M128,271.580132 L127.860044,271.617407 L92.2915165,262.013187 L90.0177582,236.54189 L57.957978,236.54189 L62.4323516,286.687648 L127.853011,304.848879 L128,304.808088 L128,271.580132 L128,271.580132 Z" fill="#EBEBEB"></path>
        <path d="M202.126769,188.636132 L207.892396,123.994725 L127.889582,123.994725 L127.889582,155.932132 L172.892132,155.932132 L169.98611,188.636132 L127.889582,188.636132 L127.889582,220.572835 L167.216527,220.572835 L163.509451,261.992791 L127.889582,271.606857 L127.889582,304.833407 L193.362286,286.687648 L193.842637,281.291956 L201.347516,197.212132 L202.126769,188.636132 L202.126769,188.636132 Z" fill="#FFFFFF"></path>
    </g>
  </symbol>
  
  <symbol id="js" viewBox="0 0 1776 2500">
    <g>
      <path d="m1776 489.9h-1776l166.5 1805.5 721.4 204.6 721.4-204.6z" fill="#e6a329"/><path d="m887.9 637v1710l584.5-165.6 142.2-1544.4z" fill="#f1bf22"/><path d="m1352.9 858.5h-898.7l-62.6 676 1.3-4.2h763.5l-24.9 286-243.6 70.1-247.2-71.2-14.8-173.1h-224.4l32 345.9 454.4 129 454.6-129 62.6-678.9h-810.3l10.4-226.2h562.2l8.4 129.6h226.4z" fill="#fff"/><path d="m888.1 858.5h-433.9l-62.6 676 1.3-4.2h495.2v-220.5h-261.7l10.4-226.2h251.3zm-261.7 783.6h-224.9l32 345.7 454.4 128.8v-230l-247.2-71.4z" fill="#ebebeb"/>
    </g>
  </symbol>

  <symbol id="jquery" viewBox="0 0 512 116">
    <g>
     <path d="M489.718192,8.64613026 L511.13882,8.76383142 C511.13882,8.76383142 471.313656,62.7278468 468.06216,67.1259464 C467.005794,68.5501302 465.401134,70.0861302 464.588016,71.9899464 C462.531188,76.7764598 460.419432,87.2754022 460.419432,87.2754022 L440.82023,87.3725058 C440.82023,87.3725058 443.86967,76.4292414 443.744122,70.600092 C443.633288,65.5075556 441.034054,60.421885 439.57554,55.314636 C438.102314,50.1455938 436.101394,40.02918 436.101394,40.02918 L456.25085,40.02918 L459.029578,51.1460536 L489.718192,8.64613026" fill="#ffffff"/>
            <path d="M449.157394,20.0268506 C453.110192,22.4102988 455.535816,35.5555556 455.535816,35.5555556 C455.535816,35.5555556 434.8518,35.8605978 423.595648,35.8605978 L413.868628,35.8605978 L402.057318,87.2754022 L383.993134,87.2754022 C383.993134,87.2754022 395.234574,31.400705 397.888736,21.2705594 C398.749916,17.9916015 403.78066,18.5536245 412.277702,18.5536245 L425.846682,18.5536245 C434.608552,18.5536245 444.849532,17.4354636 449.157394,20.0268506" fill="#ffffff"/>
            <path d="M365.059924,45.0667892 C365.059924,45.0667892 365.622928,41.7662528 363.149242,37.9448888 C361.037486,34.6865288 359.08561,33.929318 353.527172,33.7557088 C337.831724,33.2623448 338.136766,44.89318 338.136766,44.89318 L365.059924,45.0667892 L365.059924,45.0667892 Z M382.082452,31.7479234 C384.382528,40.0438928 379.99816,59.5391264 379.99816,59.5391264 C379.99816,59.5391264 357.104306,59.1565978 344.56423,59.5391264 C340.66538,59.6578084 335.997548,59.1154022 334.83721,60.9289808 C333.204108,63.4713256 335.433564,67.383908 337.323648,69.0366284 C339.499158,70.9404444 343.736398,71.1562298 345.258666,71.3504368 C355.436874,72.6431878 376.7398,71.6839234 376.7398,71.6839234 L373.04987,88.0247662 C373.04987,88.0247662 342.94584,89.5333026 327.88892,85.940475 C324.915984,85.2323066 322.12941,83.8012568 320.246192,81.7718928 C319.73223,81.2167356 319.286928,80.459525 318.80043,79.8062836 C318.412016,79.284475 317.280122,77.5689808 316.772046,76.213456 C313.33321,67.0494406 317.175172,49.4923524 320.940628,40.0850882 C321.378084,38.9943908 321.927356,37.6123832 322.505072,36.4373334 C323.226974,34.971954 323.838038,33.3182528 324.414774,32.4423602 C324.803188,31.838161 325.2838,31.4487662 325.686928,30.8788966 C326.151846,30.2050574 326.693272,29.551816 327.194482,28.9691954 C328.583356,27.3566896 330.160552,26.2169502 332.057502,24.800613 C338.330974,20.1033564 349.68423,16.4556015 363.32285,17.8523218 C368.457564,18.3800153 376.212108,20.2141916 379.99816,25.4950498 C381.012352,26.905502 381.512582,29.7048276 382.082452,31.7479234 L382.082452,31.7479234 L382.082452,31.7479234 Z" fill="#ffffff"/>
            <path d="M299.22869,18.4908506 L316.744582,18.3868812 C316.744582,18.3868812 306.983234,64.6944368 302.008398,87.2754022 L281.858942,87.2754022 C267.776,87.2754022 255.234942,89.019341 249.899158,78.9372568 C244.72325,69.1484444 249.662774,53.0498698 251.983448,42.1134712 C253.623418,34.3736398 257.076966,18.5536245 257.076966,18.5536245 L275.224522,18.3868812 C275.224522,18.3868812 270.096674,43.0168276 267.96334,55.314636 C267.199264,59.7196016 265.62305,63.8675862 267.268904,67.1259464 C268.832368,70.22541 271.020628,70.4470804 277.69036,70.600092 C279.803096,70.649134 286.722942,70.600092 286.722942,70.600092 L299.22869,18.4908506" fill="#ffffff"/>
            <path d="M217.243954,51.8404904 C219.07813,45.3237702 221.752888,38.2577778 221.412536,32.3864522 C221.04472,26.106115 215.778574,20.3878008 212.380934,19.1862682 C202.14682,15.5728429 192.565946,20.624184 188.758314,24.7437242 C183.83154,30.0804904 182.164107,36.3127662 180.420169,44.89318 C179.121533,51.2637548 178.058299,57.9893946 180.420169,62.957364 C184.602483,71.7398314 197.64377,69.8222836 211.685518,69.9056552 C213.769808,64.3197548 215.49315,58.0453026 217.243954,51.8404904 L217.243954,51.8404904 L217.243954,51.8404904 Z M241.561992,26.1335786 C243.562912,40.6824214 235.885854,56.7398008 230.59813,70.7040614 C235.989824,71.1905594 240.714544,70.6285364 241.054896,71.030682 C241.40898,71.5524904 237.441472,87.6991264 236.058482,87.7403218 C231.779066,87.852138 217.59902,87.969839 211.685518,87.969839 C192.391356,87.969839 174.340904,89.2272796 165.135693,79.6326744 C161.397701,75.7348046 158.81318,69.0503602 158.187402,64.3472184 C157.144766,56.4955708 158.451249,47.8523832 160.271693,40.7245978 C161.918529,34.2902682 164.030284,28.2178698 167.219985,22.659433 C175.327632,8.50685058 189.432153,-1.99797701 213.075372,0.426666666 C217.660812,0.89943295 224.247172,2.9072184 228.360828,5.28968582 C228.645272,5.45740996 229.639846,6.2489502 229.868384,6.38822988 C235.42682,9.92514942 240.491892,18.3662835 241.561992,26.1335786 L241.561992,26.1335786 L241.561992,26.1335786 Z" fill="#ffffff"/>
            <path d="M156.193349,18.5742222 C155.026146,23.88941 153.858943,29.9137472 152.628966,35.166161 L133.174927,35.166161 C134.682483,29.3438774 135.835954,23.5559234 137.34351,18.4908506 C143.56892,18.4908506 149.356874,18.5742222 156.193349,18.5742222" fill="#ffffff"/>
            <path d="M132.48049,40.02918 L151.239111,40.02918 C148.787004,53.6060076 143.930851,75.5052874 140.123218,90.748567 C137.73977,100.288245 136.148843,107.250268 129.700782,112.286897 C129.124046,112.739065 128.79154,112.524261 128.311908,112.982314 C127.123126,114.115188 121.627464,115.428536 118.584889,115.761042 C113.637517,116.296582 108.044751,115.830682 101.965487,115.706115 C103.556414,109.890697 105.356261,102.908077 106.773579,97.6968582 C121.593134,99.489839 121.968797,85.4824214 124.837762,71.9899464 C126.49833,64.1942068 131.529073,43.1561072 132.48049,40.02918" fill="#ffffff"/>
            <g transform="translate(0.000000, 8.827586)" fill="#21609B">
                <path d="M88.7084138,66.6365058 L88.3062682,67.678161 C81.4550804,81.0176246 69.3171494,89.2027586 52.0033104,89.5637088 C43.9093946,89.7304522 36.1970268,87.6540076 31.1594176,85.3951264 C20.286774,80.5105288 11.1423755,71.4514636 6.14792338,61.7725058 C-1.01615326,47.897502 -2.30792338,28.596475 12.5881379,14.180046 C12.8176552,14.180046 10.7814253,17.3059923 11.0109425,17.3059923 L10.6009502,18.6399387 C-0.133394636,52.2465594 32.9376858,81.046069 65.0857932,77.7523984 C72.8118928,76.9608582 82.6644598,72.729502 88.7084138,66.6365058"/>
                <path d="M69.2543754,52.7399234 C77.3424062,52.7958314 85.7904062,49.0156628 90.792705,43.7083218 C86.416184,54.8183296 73.7436934,61.9598468 56.7486284,59.6882146 C42.5195402,57.7843984 28.9642912,43.4650728 27.5675708,29.1173026 C26.5465134,18.675249 30.1864214,12.4429732 36.183295,4.88361686 C34.0990038,8.83739464 33.3202146,11.8868352 33.1260076,13.8318467 C30.8475096,36.4196782 51.1695938,52.6222222 69.2543754,52.7399234"/>
                <path d="M89.980567,24.6848736 C88.7231264,27.5685518 81.483525,33.0151724 78.2869578,33.6958774 C65.6281992,36.3922146 57.5205518,30.389456 53.2744828,23.558866 C52.64282,22.5378084 51.4756168,19.7522146 51.2666974,19.0430651 C49.619862,13.443433 50.3770728,4.9738544 55.290115,0.58948659 C53.810023,4.75806896 53.5942376,9.60049042 54.3730268,12.7480153 C54.8448122,14.6518314 56.282728,17.9739464 57.7216246,20.0641226 C60.340475,23.8717548 62.0010422,24.7966896 65.3643524,26.8182068 C66.878774,27.7284292 68.5040306,28.4581762 69.2063142,28.659249 C72.3950344,29.5969348 79.1275402,32.0706206 89.980567,24.6848736"/>
    </g>
  </symbol>

  <symbol id="sass" viewBox="0 0 256 192">
    <g fill="#CD6799">
        <path d="M220.281239,110.513661 C211.374863,110.560291 203.634244,112.705282 197.152641,115.876138 C194.774499,111.166485 192.396357,106.969763 191.976685,103.892168 C191.510383,100.301639 190.95082,98.1100182 191.510383,93.8200364 C192.069945,89.5300546 194.587978,83.4214936 194.541348,82.9551913 C194.494718,82.4888889 193.981785,80.2972678 188.852459,80.2506375 C183.723133,80.2040073 179.29326,81.2298725 178.780328,82.5821494 C178.267395,83.9344262 177.28816,87.0120219 176.635337,90.182878 C175.749362,94.8459016 166.376685,111.492896 161.014208,120.21275 C159.288889,116.808743 157.796721,113.824408 157.47031,111.446266 C157.004007,107.855738 156.444444,105.664117 157.004007,101.374135 C157.56357,97.084153 160.081603,90.975592 160.034973,90.5092896 C159.988342,90.0429872 159.47541,87.8513661 154.346084,87.8047359 C149.216758,87.7581056 144.786885,88.7839709 144.273953,90.1362477 C143.76102,91.4885246 143.201457,94.6593807 142.128962,97.7369763 C141.056466,100.814572 128.606193,128.606193 125.342077,135.78725 C123.663388,139.471038 122.217851,142.408743 121.191985,144.413843 L121.191985,144.413843 C121.191985,144.413843 121.145355,144.553734 121.005464,144.786885 C120.11949,146.512204 119.606557,147.444809 119.606557,147.444809 C119.606557,147.444809 119.606557,147.444809 119.606557,147.491439 C118.907104,148.750455 118.16102,149.916211 117.787978,149.916211 C117.508197,149.916211 116.995264,146.558834 117.881239,141.989071 C119.746448,132.336612 124.176321,117.321676 124.12969,116.808743 C124.12969,116.528962 124.969035,113.917668 121.238616,112.565392 C117.601457,111.213115 116.295811,113.451366 115.969399,113.451366 C115.642987,113.451366 115.409836,114.24408 115.409836,114.24408 C115.409836,114.24408 119.466667,97.3639344 107.669217,97.3639344 C100.301639,97.3639344 90.1362477,105.430965 85.1001821,112.705282 C81.929326,114.430601 75.1679417,118.11439 67.940255,122.07796 C65.189071,123.616758 62.3446266,125.155556 59.6867031,126.601093 C59.5001821,126.414572 59.3136612,126.181421 59.1271403,125.9949 C44.8582878,110.746812 18.4655738,99.9752277 19.5846995,79.5045537 C20.0043716,72.0437158 22.5690346,52.4590164 70.2717668,28.6775956 C109.534426,9.32604736 140.776685,14.6885246 146.185792,26.579235 C153.926412,43.5526412 129.445537,75.0746812 88.8772313,79.6444444 C73.3959927,81.3697632 65.2823315,75.4010929 63.2306011,73.1628415 C61.0856102,70.8313297 60.7591985,70.691439 59.9664845,71.1577413 C58.6608379,71.8571949 59.5001821,73.9555556 59.9664845,75.1679417 C61.1788707,78.3387978 66.168306,83.9344262 74.6083789,86.6856102 C82.0692168,89.1103825 100.208379,90.4626594 122.17122,81.9759563 C146.745355,72.463388 165.957013,46.0240437 160.314754,23.8746812 C154.672495,1.3989071 117.368306,-6.01530055 82.0692168,6.52823315 C61.0856102,13.989071 38.3300546,25.7398907 21.9628415,41.0346084 C2.51803279,59.2204007 -0.559562842,75.028051 0.699453552,81.6495446 C5.22258652,105.151184 37.6306011,120.445902 50.5938069,131.777049 C49.9409836,132.150091 49.3347905,132.476503 48.8218579,132.756284 C42.340255,135.97377 17.6262295,148.890346 11.4710383,162.553005 C4.47650273,178.034244 12.5901639,189.13224 17.9526412,190.624408 C34.5996357,195.240801 51.7129326,186.940619 60.8990893,173.23133 C70.0852459,159.52204 68.9661202,141.70929 64.7227687,133.548998 C64.6761384,133.455738 64.6295082,133.362477 64.5362477,133.269217 C66.2149362,132.289982 67.940255,131.264117 69.6189435,130.284882 C72.9296903,128.326412 76.1938069,126.507832 78.9916211,125.015665 C77.4061931,129.352277 76.2404372,134.528233 75.6808743,141.989071 C74.9814208,150.755556 78.571949,162.133333 83.2816029,166.609836 C85.3799636,168.568306 87.8513661,168.614936 89.4367942,168.614936 C94.9391621,168.614936 97.4105647,164.045173 100.161749,158.636066 C103.519126,152.014572 106.550091,144.320583 106.550091,144.320583 C106.550091,144.320583 102.773042,165.117668 113.031694,165.117668 C116.762113,165.117668 120.539162,160.268124 122.217851,157.796721 L122.217851,157.843352 C122.217851,157.843352 122.311111,157.703461 122.497632,157.377049 C122.870674,156.770856 123.103825,156.397814 123.103825,156.397814 L123.103825,156.304554 C124.595993,153.69326 127.95337,147.77122 132.942805,137.93224 C139.377778,125.248816 145.579599,109.394536 145.579599,109.394536 C145.579599,109.394536 146.139162,113.264845 148.051002,119.699818 C149.170128,123.476867 151.501639,127.626958 153.366849,131.637158 C151.874681,133.735519 150.942077,134.901275 150.942077,134.901275 C150.942077,134.901275 150.942077,134.901275 150.988707,134.947905 C149.776321,136.533333 148.470674,138.258652 147.025137,139.937341 C141.942441,145.999271 135.88051,152.947177 135.041166,154.952277 C134.061931,157.330419 134.295082,159.055738 136.160291,160.454645 C137.512568,161.48051 139.937341,161.620401 142.408743,161.48051 C146.978506,161.154098 150.195993,160.034973 151.781421,159.335519 C154.252823,158.449545 157.143898,157.097268 159.848452,155.092168 C164.837887,151.408379 167.868852,146.139162 167.589071,139.191257 C167.44918,135.367577 166.190164,131.543898 164.651366,127.95337 C165.117668,127.300546 165.537341,126.647723 166.003643,125.9949 C173.884153,114.477231 179.992714,101.840437 179.992714,101.840437 C179.992714,101.840437 180.552277,105.710747 182.464117,112.145719 C183.396721,115.409836 185.308561,118.953734 186.98725,122.404372 C179.573042,128.419672 175.003279,135.414208 173.37122,139.983971 C170.433515,148.470674 172.718397,152.294353 177.055009,153.180328 C179.013479,153.6 181.811293,152.667395 183.863024,151.781421 C186.474317,150.942077 189.551913,149.496539 192.489617,147.351548 C197.479053,143.66776 202.281967,138.538434 202.002186,131.590528 C201.862295,128.419672 201.022951,125.295446 199.857195,122.264481 C206.152277,119.653188 214.265938,118.20765 224.617851,119.420036 C246.813843,122.03133 251.197086,135.88051 250.357741,141.70929 C249.518397,147.538069 244.855373,150.708925 243.316576,151.68816 C241.777778,152.667395 241.264845,152.993807 241.404736,153.69326 C241.591257,154.719126 242.337341,154.672495 243.642987,154.485974 C245.461566,154.159563 255.300546,149.776321 255.720219,139.051366 C256.419672,125.342077 243.363206,110.37377 220.281239,110.513661 L220.281239,110.513661 Z M49.0550091,168.241894 C41.6874317,176.262295 31.4287796,179.29326 26.9989071,176.728597 C22.242623,173.977413 24.1078324,162.133333 33.1540984,153.64663 C38.6564663,148.470674 45.7442623,143.66776 50.4539162,140.730055 C51.5264117,140.077231 53.1118397,139.144627 55.0236794,137.978871 C55.3500911,137.79235 55.536612,137.699089 55.536612,137.699089 L55.536612,137.699089 C55.9096539,137.465938 56.2826958,137.232787 56.6557377,136.999636 C59.9664845,149.123497 56.7956284,159.801821 49.0550091,168.241894 L49.0550091,168.241894 Z M102.679781,131.777049 C100.115118,138.025501 94.7526412,154.019672 91.4885246,153.133698 C88.6907104,152.387614 86.9653916,140.263752 90.9289617,128.279781 C92.9340619,122.264481 97.1774135,115.083424 99.648816,112.28561 C103.659016,107.809107 108.088889,106.31694 109.161384,108.135519 C110.513661,110.513661 104.265209,127.860109 102.679781,131.777049 L102.679781,131.777049 Z M146.931876,152.947177 C145.859381,153.50674 144.833515,153.879781 144.367213,153.6 C144.040801,153.413479 144.833515,152.667395 144.833515,152.667395 C144.833515,152.667395 150.382514,146.698725 152.574135,143.994171 C153.833151,142.408743 155.325319,140.543534 156.910747,138.445173 L156.910747,139.051366 C156.910747,146.185792 150.009472,150.988707 146.931876,152.947177 L146.931876,152.947177 Z M181.065209,145.159927 C180.272495,144.600364 180.412386,142.735155 183.07031,136.906375 C184.096175,134.621494 186.520947,130.797814 190.671038,127.114026 C191.137341,128.606193 191.463752,130.05173 191.417122,131.404007 C191.370492,140.403643 184.935519,143.76102 181.065209,145.159927 L181.065209,145.159927 Z"></path>
    </g>
  </symbol>



  <!-- <symbol id="photoshop" viewBox="0 0 500 500">
    <g>
      <rect x="67.5" y="67.5" class="st0" width="365" height="365"/>
      <rect x="83.6" y="83.6" class="st1" width="332.9" height="332.9"/>
      <path fill="#00c8ff" d="M156.2,155.7c0-1.3,0.2-1.8,1.3-1.8c8.2-0.3,24.4-0.5,40.8-0.5c42.3,0,58.5,24.6,58.7,53.8   c0,39.9-29.8,55.1-61.5,55.1c-6,0-11.9,0-13.4,0v57c0,1.5-0.4,2-1.5,2h-22.9c-1.1,0-1.5-0.5-1.5-1.8V155.7z M182.1,237.9   c1.7,0.3,5,0.5,14,0.5c17.1,0,33.5-4.9,33.5-30c0-20.1-11-30.4-31.3-30.4c-8.4,0-14.5,0.3-16.2,0.5V237.9z"/>
      <path fill="#00c8ff" d="M310.9,219.1c-10.4,0-13.2,6.5-13.2,11.3c0,6,2.8,9.3,18.7,16.8c21.9,10.5,31.2,19.8,31.2,37.9   c0,25.1-16.3,39.4-39.7,39.4c-11.2,0-25.4-1.1-34.4-7.6c-0.8-0.5-1.3-1.3-1.3-2.5v-23.1c0-1.3,0.8-1.8,1.5-1.3   c11,8.3,23.3,10.6,34.4,10.6c9.8,0,13.2-6.5,13.2-12c0-6.5-2.4-10.3-17.6-17.6c-21.9-10.5-31-19.6-31-37.9   c0-20.3,15.3-37.1,40.3-37.1c12.9,0,22.1,0.3,28,4.4c1.1,1,1.3,1.8,1.3,3.3v20.6c0,1.5-0.8,2.3-1.9,1.5   C332.8,220.7,322,219.1,310.9,219.1z"/>
    </g>
  </symbol> -->


    <!--    <svg class="icon">
              <use xlink:href="img/sprite.svg# id "></use>
            </svg>     -->
</svg>

